<?xml version="1.0" encoding="utf-8"?>
<!-- Generator: Adobe Illustrator 27.0.0, SVG Export Plug-In . SVG Version: 6.00 Build 0)  -->
<svg version="1.1" id="Layer_1" xmlns="http://www.w3.org/2000/svg" xmlns:xlink="http://www.w3.org/1999/xlink" x="0px" y="0px"
	 viewBox="0 0 180.7018 248.4216" enable-background="new 0 0 180.7018 248.4216" xml:space="preserve">
<g>
	<path d="M117.6721,41.5924V17.2842h-2v31.9023c0.3659-2.1288,0.9019-4.2985,1.6295-6.4821L117.6721,41.5924z"/>
	<polygon points="156.8919,70.458 158.8919,70.458 158.8919,63.6931 156.8919,63.7253 	"/>
	<polygon points="158.8919,10.3486 156.8919,10.3486 156.8919,18.1238 158.8919,18.387 	"/>
	<polygon points="153.6067,0 151.6067,0 151.6067,17.4286 153.6067,17.6917 	"/>
	<polygon points="151.6067,75.5771 153.6067,75.5771 153.6067,63.7781 151.6067,63.8103 	"/>
	<path d="M151.6067,25.1387h2v25.4469l2.3687,0.7893l-1.2646,3.7944c-0.6213,1.8644-1.3614,3.6371-2.1829,5.3257l4.364-0.0702
		V38.2393h2v22.1534l5.9797-0.0962l0.0106-0.1486l4.734-0.7706l0.1101-0.9908l2.6421-1.7615l1.4312-0.4404l0.3303-1.9816
		l0.6606-1.4312l1.552-0.776l4.3593-16.0213l-4.0883-7.0343l-1.6029,0.1069l-1.321-1.9817l-2.6422,0.4954l-1.8165-1.8165
		l-3.4679-0.8257l-0.1362-2.317l-16.8179-2.2126v28.5978l2.7979,0.9323V25.1387z"/>
	<path d="M72.9758,99.7289l-0.4169,2.0594l5.9288,3.3218c-0.3628-0.9604-0.7542-1.9459-1.1725-2.9503L72.9758,99.7289z"/>
	<path d="M74.1975,65.3277l1.5674-1.2974l3.0522,1.7101c-0.3123,0.3001-0.8114,0.7952-1.4037,1.4335
		c0.5555,0.373,1.1005,0.7682,1.6356,1.185c0.5494-0.5877,1.0482-1.0839,1.4131-1.4233l-0.5303-0.5707l20.5358,11.5057
		l-1.7642,2.7261l-4.1768,1.79l-3.8211,0.1819c0.3746,0.6478,0.7383,1.2976,1.0921,1.9503l3.1841-0.1517l5.0693-2.1729l2.165-3.3442
		l3.1104,1.7427l-10.949,9.063c0.2468,0.5314,0.492,1.0623,0.7249,1.5863l2.2603-1.4606l11.4852-9.5071L75.5462,61.6143
		l-3.4458,2.8524c0.1388,0.0441,0.2786,0.0873,0.4112,0.1368C73.0838,64.8171,73.6432,65.0659,74.1975,65.3277z"/>
	<path d="M136.2493,80.917h2v-5.1987c-0.661,0.3011-1.3289,0.5505-2,0.769V80.917z"/>
	<polygon points="136.2493,44.8016 138.2493,45.468 138.2493,12.1094 136.2493,12.1094 	"/>
	<polygon points="131.7639,25.8545 129.7639,25.8545 129.7639,42.6404 131.7639,43.3069 	"/>
	<path d="M142.5344,83.5596h2V71.4634c-0.6521,0.5957-1.3203,1.1447-2,1.6573V83.5596z"/>
	<polygon points="142.5344,46.8959 144.5344,47.5624 144.5344,11.9203 144.5344,7.9258 142.5344,7.9258 142.5344,11.6078 	"/>
	<polygon points="124.6526,6.8359 122.6526,6.8359 122.6526,40.2708 124.6526,40.9372 	"/>
	<path d="M129.3153,90.9222c3.7109-2.3979,4.7754-7.3506,2.377-11.0615c-0.4654-0.7205-1.0291-1.338-1.6593-1.853l1.2328-3.6997
		c7.9462-0.0272,16.6376-8.1979,20.5988-20.0864l0.3164-0.9492l-31.7168-10.5684l-0.3154,0.9482
		c-2.1836,6.5508-2.6377,13.2559-1.2803,18.8818c1.0291,4.266,3.0115,7.5465,5.7094,9.5568l-1.444,4.3336
		c-0.8655,0.2046-1.7125,0.5489-2.5021,1.0592l-26.5674,17.168c-4.1455-9.9873-11.6387-23.8911-22.3555-27.8931
		c-0.3604-0.1343-0.7256-0.2314-1.0908-0.312c-0.3467-0.124-0.7021-0.2329-1.0732-0.3081L31.6776,58.472
		c-0.9661-0.1956-1.9244-0.1941-2.8406-0.0364c-2.0602,0.1946-4.6641,0.9615-7.5743,2.974
		c-6.33,4.3773-14.1135,14.6734-20.9401,37.98c-0.7275,2.4854-0.208,5.168,1.3945,7.2012c1.5215,1.9297,3.8398,3.0479,6.2822,3.0479
		c0.1309,0,0.2627-0.0029,0.3936-0.0098l2.7238-0.134l0,0l3.7866-18.7045l2.2588,0.4323l-8.1632,40.3235
		c-0.0759,0.375-0.1136,0.7481-0.134,1.1192c-0.1256,0.707-0.2027,1.4309-0.2027,2.174v4.3829v96.8359
		c0,6.8301,5.5371,12.3633,12.3633,12.3633c6.8281,0,12.3652-5.5332,12.3652-12.3633v-89.3419v-2.3467l4.6348,0.9383v2.3467v88.4036
		c0,6.8301,5.5371,12.3633,12.3633,12.3633c6.8281,0,12.3652-5.5332,12.3652-12.3633v-89.728v-7.7032l10.1326-50.0462
		c3.8633,5.8569,7.4873,14.2085,9.4209,20.562c0.7275,2.4048,2.543,4.3286,4.9014,5.1938c0.8945,0.3281,1.8271,0.4897,2.7549,0.4897
		c1.5215,0,3.0322-0.4341,4.3428-1.2808l21.1242-13.651c-0.068,0.8392,0.1678,1.6579,0.6418,2.3234
		c0.4178,0.5867,1.0104,1.0563,1.7461,1.3015c1.8459,0.6151,3.8409-0.3827,4.4559-2.2286l1.3083-3.9263l1.1628-3.4896
		L129.3153,90.9222z M149.6399,54.5342c-0.3162,0.8753-0.6617,1.7246-1.028,2.5519c-0.9445-0.1689-3.0652-0.6166-5.849-1.6212
		c-1.6133-0.583-9.7959-3.4717-12.7119-3.0205c-1.1055,0.167-1.8359-0.4619-2.9316-1.5088
		c-0.3359-0.3213-0.6719-0.6406-1.0215-0.9229c-1.2968-1.0475-3.862-0.9999-5.3232-0.8721c0.254-1.2968,0.5683-2.6006,0.9667-3.9033
		L149.6399,54.5342z M120.4348,51.1891c1.4897-0.1787,3.7145-0.1796,4.4063,0.3793c0.3076,0.248,0.6006,0.5303,0.8965,0.8125
		c1.1045,1.0566,2.4824,2.3721,4.6182,2.04c1.4893-0.2256,6.3193,0.9707,11.7275,2.9248c2.4926,0.8998,4.4704,1.3746,5.6423,1.6093
		c-4.8345,9.4841-12.8155,15.074-19.3552,12.8995c-3.6436-1.2148-6.3281-4.6914-7.5576-9.79
		C120.0145,58.7578,119.905,55.0349,120.4348,51.1891z"/>
	<ellipse transform="matrix(0.558 -0.8298 0.8298 0.558 -3.9262 61.9638)" cx="56.2055" cy="34.6676" rx="22.5" ry="22.5"/>
	<rect x="110.1673" y="26.5312" width="2" height="34.7891"/>
</g>
</svg>
