<?xml version="1.0" standalone="no"?>
<!DOCTYPE svg PUBLIC "-//W3C//DTD SVG 20010904//EN"
 "http://www.w3.org/TR/2001/REC-SVG-20010904/DTD/svg10.dtd">
<svg version="1.0" xmlns="http://www.w3.org/2000/svg"
 width="193.917803pt" height="142.895718pt" viewBox="0 0 193.917803 142.895718"
 preserveAspectRatio="xMidYMid meet">
<metadata>
Created by potrace 1.12, written by Peter Selinger 2001-2015
</metadata>
<g transform="translate(-2.095291,173.895718) scale(0.100000,-0.100000)"
fill="#000000" stroke="none">
<path d="M1127 1579 c-92 -88 -171 -159 -177 -157 -5 1 -59 51 -119 111 -93
91 -114 107 -141 107 -29 0 -68 -35 -351 -311 -320 -312 -339 -335 -307 -367
7 -7 31 -12 55 -12 l43 0 0 -298 0 -299 23 -21 c23 -21 30 -22 295 -22 l272 0
10 26 c13 33 13 100 0 125 -10 18 -23 19 -204 19 -143 0 -196 3 -204 13 -7 8
-10 110 -9 289 l2 278 180 180 c99 99 184 180 190 180 6 0 40 -29 75 -65 l64
-65 -67 -68 c-99 -100 -91 -132 33 -132 l76 0 64 62 c36 34 137 133 226 220
89 87 165 158 169 158 5 0 108 -99 230 -220 l222 -221 89 3 89 3 3 30 c3 31
-36 72 -479 503 -160 154 -140 157 -352 -49z m477 -156 c144 -142 263 -264
264 -271 3 -9 -5 -12 -26 -10 -24 2 -79 50 -260 226 -191 184 -235 222 -259
222 -24 0 -65 -36 -253 -225 -182 -182 -230 -225 -252 -225 -15 0 -29 4 -32 9
-3 4 45 57 107 117 62 61 182 178 267 262 85 83 161 152 169 152 8 0 132 -116
275 -257z m-805 53 c73 -73 102 -109 98 -120 -12 -31 -43 -16 -112 54 -50 51
-77 70 -95 70 -20 0 -80 -52 -273 -240 -188 -183 -252 -240 -271 -240 -14 0
-28 5 -31 11 -9 13 551 566 575 568 3 1 52 -46 109 -103z m-548 -758 c0 -251
0 -258 21 -278 20 -19 35 -20 210 -20 159 0 190 -2 194 -15 15 -37 -6 -40
-248 -35 l-233 5 -3 284 c-2 256 -1 286 15 303 9 10 23 17 30 16 11 -2 14 -52
14 -260z"/>
<path d="M1160 1210 l0 -70 70 0 70 0 0 70 0 70 -70 0 -70 0 0 -70z m90 0 c0
-13 -7 -20 -20 -20 -13 0 -20 7 -20 20 0 13 7 20 20 20 13 0 20 -7 20 -20z"/>
<path d="M1340 1210 l0 -70 70 0 70 0 0 70 0 70 -70 0 -70 0 0 -70z m90 0 c0
-13 -7 -20 -20 -20 -13 0 -20 7 -20 20 0 13 7 20 20 20 13 0 20 -7 20 -20z"/>
<path d="M1160 1040 l0 -70 70 0 70 0 0 70 0 70 -70 0 -70 0 0 -70z m90 0 c0
-13 -7 -20 -20 -20 -13 0 -20 7 -20 20 0 13 7 20 20 20 13 0 20 -7 20 -20z"/>
<path d="M1340 1040 l0 -70 70 0 70 0 0 70 0 70 -70 0 -70 0 0 -70z m90 0 c0
-13 -7 -20 -20 -20 -13 0 -20 7 -20 20 0 13 7 20 20 20 13 0 20 -7 20 -20z"/>
<path d="M1745 920 c-22 -11 -121 -55 -220 -99 -99 -43 -216 -96 -260 -116
-44 -21 -120 -55 -170 -77 -79 -35 -101 -50 -182 -131 -73 -72 -93 -98 -93
-119 l0 -28 140 0 140 0 153 69 c83 38 177 79 207 91 30 13 60 27 65 31 6 4
96 44 200 89 105 45 200 92 213 103 39 36 25 123 -31 185 -26 28 -104 29 -162
2z m128 -75 c35 -74 9 -98 -28 -26 -30 60 -30 61 -7 61 11 0 25 -14 35 -35z
m-103 -56 c12 -23 20 -43 18 -45 -3 -2 -14 17 -26 41 -27 56 -20 60 8 4z
m-105 2 c-18 -18 -577 -262 -588 -258 -7 3 33 26 88 51 391 182 535 241 500
207z m45 -87 c0 -3 -35 -21 -77 -40 -43 -19 -87 -39 -98 -44 -265 -122 -402
-180 -415 -177 -15 3 11 16 355 173 184 84 235 104 235 88z m-682 -248 c11
-19 18 -37 15 -40 -12 -12 -113 -6 -113 6 0 16 50 68 66 68 7 0 21 -15 32 -34z"/>
</g>
</svg>
