<?xml version="1.0" encoding="UTF-8"?>
<!DOCTYPE svg PUBLIC "-//W3C//DTD SVG 1.1//EN" "http://www.w3.org/Graphics/SVG/1.1/DTD/svg11.dtd">
<!-- Creator: CorelDRAW -->
<svg xmlns="http://www.w3.org/2000/svg" xml:space="preserve" width="512px" height="512px" version="1.1" style="shape-rendering:geometricPrecision; text-rendering:geometricPrecision; image-rendering:optimizeQuality; fill-rule:evenodd; clip-rule:evenodd"
viewBox="0 0 512 512"
 xmlns:xlink="http://www.w3.org/1999/xlink">
 <defs>
  <style type="text/css">
   <![CDATA[
    .fil0 {fill:black}
   ]]>
  </style>
 </defs>
 <g id="Layer_x0020_1">
  <metadata id="CorelCorpID_0Corel-Layer"/>
  <g id="_216334040">
   <g>
    <g id="_216334160">
     <path class="fil0" d="M484 199c-2,0 -3,-1 -5,-2l-185 -185c-3,-3 -3,-7 0,-10 2,-3 7,-3 9,0l186 185c3,3 3,7 0,10 -1,1 -3,2 -5,2zm-456 0c-2,0 -4,-1 -5,-2 -3,-3 -3,-7 0,-10l186 -185c2,-3 7,-3 9,0 3,3 3,7 0,10l-185 185c-2,1 -3,2 -5,2z"/>
    </g>
    <g id="_216334208">
     <path class="fil0" d="M442 266c-9,0 -17,-3 -23,-9l-163 -163 -163 163c-6,6 -14,9 -23,9 -8,0 -16,-3 -22,-9 -6,-6 -10,-14 -10,-22 0,-9 4,-17 10,-23l185 -185c6,-6 14,-9 23,-9l0 0c9,0 17,3 23,9l185 185c6,6 10,14 10,23 0,8 -4,16 -10,22 0,0 0,0 0,0 -6,6 -14,9 -22,9zm-186 -188c2,0 4,0 5,2l168 167c3,4 8,5 13,5 5,0 9,-1 12,-5 0,0 0,0 1,0 3,-3 5,-8 5,-12 0,-5 -2,-10 -6,-13l-185 -185c-4,-3 -8,-5 -13,-5l0 0c-5,0 -9,2 -13,5l-185 185c-4,3 -6,8 -6,13 0,4 2,9 6,12 3,4 7,5 12,5 5,0 10,-1 13,-5l168 -167c1,-2 3,-2 5,-2z"/>
    </g>
    <g id="_216334352">
     <path class="fil0" d="M426 512l-340 0c-4,0 -7,-3 -7,-7l0 -251c0,-2 1,-4 2,-5 1,-1 1,-1 2,-2 3,-2 7,-2 10,0 3,3 3,7 0,10 0,0 0,0 0,0l0 241 326 0 0 -244c0,-4 4,-7 7,-7 4,0 7,3 7,7l0 251c0,4 -3,7 -7,7z"/>
    </g>
    <g id="_216334400">
     <path class="fil0" d="M446 512l-380 0c-4,0 -7,-3 -7,-7 0,-4 3,-7 7,-7l380 0c4,0 7,3 7,7 0,4 -3,7 -7,7z"/>
    </g>
    <g id="_216334328">
     <path class="fil0" d="M282 512c-4,0 -7,-3 -7,-7l0 -125c0,-3 1,-6 4,-7 25,-9 42,-34 42,-60 0,-21 -10,-40 -26,-52l0 64c0,4 -4,7 -7,7l-64 0c-3,0 -7,-3 -7,-7l0 -64c-16,12 -26,31 -26,52 0,26 17,51 42,60 3,1 4,4 4,7l0 125c0,4 -3,7 -7,7 -3,0 -7,-3 -7,-7l0 -121c-27,-12 -46,-41 -46,-71 0,-30 17,-57 44,-71 2,-1 5,-1 7,1 2,1 3,3 3,6l0 69 50 0 0 -69c0,-3 1,-5 3,-6 2,-2 5,-2 7,-1 27,14 44,41 44,71 0,30 -19,59 -46,71l0 121c0,4 -4,7 -7,7z"/>
    </g>
    <g>
     <g id="_216334664">
      <path class="fil0" d="M134 452c-4,0 -7,-3 -7,-7l0 -133c0,-4 3,-7 7,-7 3,0 7,3 7,7l0 133c0,4 -4,7 -7,7z"/>
     </g>
     <g id="_216334736">
      <path class="fil0" d="M378 452c-3,0 -7,-3 -7,-7l0 -133c0,-4 4,-7 7,-7 4,0 7,3 7,7l0 133c0,4 -3,7 -7,7z"/>
     </g>
    </g>
    <g id="_216334808">
     <path class="fil0" d="M256 225c-22,0 -40,-18 -40,-40 0,-22 18,-39 40,-39 22,0 40,17 40,39 0,22 -18,40 -40,40zm0 -65c-14,0 -26,11 -26,25 0,15 12,26 26,26 14,0 26,-11 26,-26 0,-14 -12,-25 -26,-25z"/>
    </g>
   </g>
  </g>
 </g>
</svg>
